<svg width="48" height="48" viewBox="0 0 48 48" fill="none" xmlns="http://www.w3.org/2000/svg">
  <path d="M21.1532 17.4084C22.4198 15.1361 23.0531 14 24 14C24.9469 14 25.5802 15.1361 26.8468 17.4084L27.1745 17.9962C27.5345 18.6419 27.7144 18.9648 27.9951 19.1778C28.2757 19.3908 28.6251 19.4699 29.3241 19.628L29.9605 19.772C32.4201 20.3286 33.65 20.6068 33.9426 21.5477C34.2352 22.4886 33.3968 23.4691 31.7199 25.4299L31.2861 25.9372C30.8096 26.4944 30.5713 26.773 30.4641 27.1177C30.357 27.4624 30.393 27.8341 30.465 28.5776L30.5306 29.2544C30.7841 31.8706 30.9109 33.1787 30.1449 33.7602C29.3788 34.3417 28.2273 33.8115 25.9243 32.7512L25.3285 32.4768C24.6741 32.1755 24.3469 32.0248 24 32.0248C23.6531 32.0248 23.3259 32.1755 22.6715 32.4768L22.0757 32.7512C19.7727 33.8115 18.6212 34.3417 17.8551 33.7602C17.0891 33.1787 17.2159 31.8706 17.4694 29.2544L17.535 28.5776C17.607 27.8341 17.643 27.4624 17.5359 27.1177C17.4287 26.773 17.1904 26.4944 16.7139 25.9372L16.2801 25.4299C14.6032 23.4691 13.7648 22.4886 14.0574 21.5477C14.35 20.6068 15.5799 20.3286 18.0395 19.772L18.6759 19.628C19.3749 19.4699 19.7243 19.3908 20.0049 19.1778C20.2856 18.9648 20.4655 18.6419 20.8255 17.9962L21.1532 17.4084Z" fill="#E98A37" />
  <path opacity="0.5" fill-rule="evenodd" clip-rule="evenodd" d="M24 2.5C24.8284 2.5 25.5 3.17157 25.5 4V8C25.5 8.82843 24.8284 9.5 24 9.5C23.1716 9.5 22.5 8.82843 22.5 8V4C22.5 3.17157 23.1716 2.5 24 2.5ZM2.5 24C2.5 23.1716 3.17157 22.5 4 22.5H8C8.82843 22.5 9.5 23.1716 9.5 24C9.5 24.8284 8.82843 25.5 8 25.5H4C3.17157 25.5 2.5 24.8284 2.5 24ZM38.5 24C38.5 23.1716 39.1716 22.5 40 22.5H44C44.8284 22.5 45.5 23.1716 45.5 24C45.5 24.8284 44.8284 25.5 44 25.5H40C39.1716 25.5 38.5 24.8284 38.5 24ZM24 38.5C24.8284 38.5 25.5 39.1716 25.5 40V44C25.5 44.8284 24.8284 45.5 24 45.5C23.1716 45.5 22.5 44.8284 22.5 44V40C22.5 39.1716 23.1716 38.5 24 38.5Z" fill="#E98A37" />
  <g opacity="0.5">
    <path d="M37.0609 10.9393C37.6467 11.5251 37.6467 12.4749 37.0609 13.0607L36.3744 13.7472C35.7886 14.333 34.8388 14.333 34.253 13.7472C33.6673 13.1614 33.6673 12.2117 34.253 11.6259L34.9396 10.9393C35.5254 10.3536 36.4751 10.3536 37.0609 10.9393Z" fill="#E98A37" />
    <path d="M10.9393 10.9396C11.5251 10.3538 12.4749 10.3538 13.0607 10.9396L13.7472 11.6261C14.333 12.2119 14.333 13.1616 13.7472 13.7474C13.1614 14.3332 12.2117 14.3332 11.6259 13.7474L10.9393 13.0609C10.3536 12.4751 10.3536 11.5254 10.9393 10.9396Z" fill="#E98A37" />
    <path d="M13.747 34.2533C14.3327 34.8391 14.3327 35.7888 13.747 36.3746L13.0609 37.0607C12.4751 37.6465 11.5253 37.6465 10.9395 37.0607C10.3538 36.4749 10.3538 35.5252 10.9395 34.9394L11.6256 34.2533C12.2114 33.6675 13.1612 33.6675 13.747 34.2533Z" fill="#E98A37" />
    <path d="M34.253 34.2537C34.8388 33.6679 35.7885 33.6679 36.3743 34.2537L37.0604 34.9398C37.6462 35.5256 37.6462 36.4753 37.0604 37.0611C36.4746 37.6469 35.5249 37.6469 34.9391 37.0611L34.253 36.375C33.6672 35.7893 33.6672 34.8395 34.253 34.2537Z" fill="#E98A37" />
  </g>
</svg>