<svg width="48" height="48" viewBox="0 0 48 48" fill="none" xmlns="http://www.w3.org/2000/svg">
  <path opacity="0.5" d="M21.1217 4.5C20.8947 4.49997 20.718 4.49994 20.5508 4.51007C18.4299 4.63851 16.5727 5.97709 15.7802 7.94851C15.7163 8.10738 15.6596 8.27726 15.5837 8.50501C15.417 8.95368 15.0344 9.46397 14.4987 9.87171C14.4391 9.91711 14.3792 9.95998 14.3193 10.0003L18.2033 10C18.2611 9.88087 18.3143 9.75975 18.3626 9.63684L18.3657 9.62985L18.374 9.61004L18.3838 9.58579L18.3929 9.56187L18.4002 9.54197L18.4038 9.53195L18.4122 9.50747L18.4199 9.48487L18.4241 9.47234L18.4295 9.45566L18.434 9.44159L18.4376 9.43004C18.5153 9.19744 18.5406 9.12493 18.5637 9.06751C18.9239 8.17141 19.7681 7.56296 20.7322 7.50458C20.7967 7.50067 20.8758 7.50001 21.1625 7.50001H26.838C27.1247 7.50001 27.2038 7.50067 27.2683 7.50458C28.2324 7.56296 29.0765 8.17141 29.4368 9.06751C29.4595 9.12408 29.4837 9.19395 29.5624 9.42997L29.566 9.44142L29.5705 9.45557L29.5759 9.47227L29.5801 9.48479L29.5878 9.50733L29.5962 9.53177L29.5998 9.54178L29.607 9.56163L29.6161 9.58542L29.6258 9.60943L29.634 9.62898L29.6372 9.63622C29.6856 9.75935 29.7389 9.88068 29.7967 10L33.6804 10.0003C33.6206 9.96 33.5608 9.91715 33.5012 9.87178C32.9656 9.4641 32.5832 8.95384 32.4164 8.50509L32.4104 8.48694C32.3386 8.27161 32.2827 8.10388 32.2203 7.94851C31.4277 5.9771 29.5706 4.63851 27.4497 4.51007C27.2825 4.49994 27.1058 4.49997 26.8788 4.5H21.1217Z" fill="#E98A37" />
  <path fill-rule="evenodd" clip-rule="evenodd" d="M34.3847 10H13.6153C10.2405 10 8.55317 10 7.26535 10.6594C6.14484 11.2332 5.23319 12.1448 4.65943 13.2654C4 14.5532 4 16.2405 4 19.6153C4 20.4732 4 20.9022 4.14673 21.2639C4.27486 21.5797 4.48158 21.8575 4.74726 22.071C5.05149 22.3154 5.46236 22.4387 6.28412 22.6852L17 25.9V28.3254C17 29.8566 17.9188 31.2681 19.3736 31.8593L20.4939 32.3144C22.7438 33.2285 25.2562 33.2285 27.5061 32.3144L28.6264 31.8593C30.0812 31.2681 31 29.8566 31 28.3254V25.9L41.7159 22.6852C42.5376 22.4387 42.9485 22.3154 43.2527 22.071C43.5184 21.8575 43.7251 21.5797 43.8533 21.2639C44 20.9022 44 20.4732 44 19.6153C44 16.2405 44 14.5532 43.3406 13.2654C42.7668 12.1448 41.8552 11.2332 40.7346 10.6594C39.4468 10 37.7595 10 34.3847 10ZM27.2 24H20.8C20.3582 24 20 24.3638 20 24.8126V28.3254C20 28.6577 20.1992 28.9565 20.5029 29.0799L21.6231 29.535C23.1489 30.155 24.8511 30.155 26.3769 29.535L27.4971 29.0799C27.8008 28.9565 28 28.6577 28 28.3254V24.8126C28 24.3638 27.6418 24 27.2 24Z" fill="#E98A37" />
  <path opacity="0.5" d="M6 22.5996C6.08891 22.6266 6.18343 22.6549 6.28412 22.6851L17 25.8999V28.3253C17 29.8565 17.9188 31.268 19.3736 31.8591L20.4939 32.3143C22.7438 33.2284 25.2562 33.2284 27.5061 32.3143L28.6264 31.8591C30.0812 31.268 31 29.8565 31 28.3253V25.8999L41.7159 22.6851C41.8165 22.6549 41.911 22.6266 41.9999 22.5996V24.5997C41.9981 31.9504 41.9301 39.3758 39.3639 41.6569C36.7279 44 32.4852 44 24 44C15.5147 44 11.272 44 8.63599 41.6569C6.06977 39.3758 6.0018 31.9504 6 24.5997V22.5996Z" fill="#E98A37" />
</svg>