<svg width="48" height="48" viewBox="0 0 48 48" fill="none" xmlns="http://www.w3.org/2000/svg">
  <path opacity="0.5" d="M10.3431 6.34315C8 8.68629 8 12.4575 8 20V28C8 35.5425 8 39.3137 10.3431 41.6569C12.6863 44 16.4575 44 24 44C31.5425 44 35.3137 44 37.6569 41.6569C40 39.3137 40 35.5425 40 28V20C40 12.4575 40 8.68629 37.6569 6.34315C35.3137 4 31.5425 4 24 4C16.4575 4 12.6863 4 10.3431 6.34315Z" fill="#E98A37" />
  <path d="M18 8.5C17.1716 8.5 16.5 9.17157 16.5 10C16.5 10.8284 17.1716 11.5 18 11.5H30C30.8284 11.5 31.5 10.8284 31.5 10C31.5 9.17157 30.8284 8.5 30 8.5H18Z" fill="#E98A37" />
  <path d="M24 38C26.2091 38 28 36.2091 28 34C28 31.7909 26.2091 30 24 30C21.7909 30 20 31.7909 20 34C20 36.2091 21.7909 38 24 38Z" fill="#E98A37" />
</svg>