<svg width="48" height="48" viewBox="0 0 48 48" fill="none" xmlns="http://www.w3.org/2000/svg">
  <path opacity="0.5" d="M4 24C4 14.5719 4 9.85786 6.92893 6.92893C9.85786 4 14.5719 4 24 4C33.4281 4 38.1421 4 41.0711 6.92893C44 9.85786 44 14.5719 44 24C44 33.4281 44 38.1421 41.0711 41.0711C38.1421 44 33.4281 44 24 44C14.5719 44 9.85786 44 6.92893 41.0711C4 38.1421 4 33.4281 4 24Z" fill="#E98A37" />
  <path d="M21.0862 15.0345C21.6575 14.4346 21.6344 13.4851 21.0345 12.9138C20.4346 12.3425 19.4851 12.3656 18.9138 12.9655L14.2857 17.825L13.0862 16.5655C12.5149 15.9656 11.5654 15.9425 10.9655 16.5138C10.3656 17.0851 10.3425 18.0346 10.9138 18.6345L13.1995 21.0345C13.4826 21.3318 13.8752 21.5 14.2857 21.5C14.6962 21.5 15.0888 21.3318 15.3719 21.0345L21.0862 15.0345Z" fill="#E98A37" />
  <path d="M26 16.5C25.1716 16.5 24.5 17.1716 24.5 18C24.5 18.8284 25.1716 19.5 26 19.5H36C36.8284 19.5 37.5 18.8284 37.5 18C37.5 17.1716 36.8284 16.5 36 16.5H26Z" fill="#E98A37" />
  <path d="M21.0862 29.0345C21.6575 28.4346 21.6344 27.4851 21.0345 26.9138C20.4346 26.3425 19.4851 26.3656 18.9138 26.9655L14.2857 31.825L13.0862 30.5655C12.5149 29.9656 11.5654 29.9425 10.9655 30.5138C10.3656 31.0851 10.3425 32.0346 10.9138 32.6345L13.1995 35.0345C13.4826 35.3318 13.8752 35.5 14.2857 35.5C14.6962 35.5 15.0888 35.3318 15.3719 35.0345L21.0862 29.0345Z" fill="#E98A37" />
  <path d="M26 30.5C25.1716 30.5 24.5 31.1716 24.5 32C24.5 32.8284 25.1716 33.5 26 33.5H36C36.8284 33.5 37.5 32.8284 37.5 32C37.5 31.1716 36.8284 30.5 36 30.5H26Z" fill="#E98A37" />
</svg>