<svg width="543" height="483" viewBox="0 0 543 483" fill="none" xmlns="http://www.w3.org/2000/svg">
  <path d="M.2 258.5s3 91.7 79.4 152.8c76.6 61 182.6 65.4 268.4 71.2 85.9 5.8 151.8-42.8 161.7-116.2 10-73.5-55.6-95-91.2-178.6C382.9 104 386 76.6 310.8 25 235.5-26.3 117.7 5.3 55.9 93.4c-61.7 88-55.7 165-55.7 165Z" fill="#E57B2D"/>
  <path opacity=".7" d="M.2 258.5s3 91.7 79.4 152.8c76.6 61 182.6 65.4 268.4 71.2 85.9 5.8 151.8-42.8 161.7-116.2 10-73.5-55.6-95-91.2-178.6C382.9 104 386 76.6 310.8 25 235.5-26.3 117.7 5.3 55.9 93.4c-61.7 88-55.7 165-55.7 165Z" fill="#fff"/>
  <path d="M70 292.8c2.7-4.9 6.4-7.9 11-9 4.6-1.2 9.5-.4 14.7 2.5 3 1.7 5.9 4.3 8.4 7.6 2.4 3.4 4.3 7 5.5 11.1a34.7 34.7 0 0 1-2.2 25.7 24 24 0 0 1-2.3 3.6l-.4.5c-.5.5-1 .6-1.4.4l-.4-.5a161.3 161.3 0 0 1-23.1-40.1c-.3-.8-.3-1.4-.1-1.8.1-.2.4-.2.8 0l.6.4c1.2 1.1 3.3 3.8 6.2 8.1a236.9 236.9 0 0 0 18.4 27c.4.2.6.1.8-.1l.7-1c1.8-3.3 2-7.6.8-12.8a43.3 43.3 0 0 0-18.8-26.2 13.3 13.3 0 0 0-9.3-1.6c-3.1.6-5.5 2.4-7.2 5.5a6.8 6.8 0 0 0-.9 4.6c.3 1.5 1.3 2.7 3 3.6 1.2.7 2.8 1 4.6 1 .3 0 .5.2.7.3.3.2.4.4.3.6l-.4.4c-1 .6-2.4 1-4.4 1.3-2 .3-3.8 0-5.3-.9a4 4 0 0 1-2.1-3c-.2-1.2-.2-2.4.2-3.6a19 19 0 0 1 1.6-3.6Z" fill="#E57B2D"/>
  <path d="M156.3 328.9c5.4-1.5 10-1 14 1.6 4.1 2.4 7 6.6 8.5 12.3 1 3.4 1 7.2.3 11.4a34.7 34.7 0 0 1-24.2 28 23.7 23.7 0 0 1-4.1.8h-.6c-.7 0-1.1-.3-1.3-.7v-.7a163.4 163.4 0 0 1 12.9-44.5c.4-.7.8-1.2 1.1-1.3.3 0 .5.2.7.7v.6c.1 1.7-.4 5-1.4 10.1a236.9 236.9 0 0 0-6.7 32c.1.4.4.6.7.5.3 0 .6 0 1.1-.2 3.7-1 7-3.7 9.8-8.3a43.3 43.3 0 0 0 5.8-31.7c-.9-3.4-2.6-6-5.2-7.8a10.3 10.3 0 0 0-9-1.4c-1.8.4-3 1.3-4 2.6-.8 1.2-1 2.7-.5 4.6a9.3 9.3 0 0 0 2.5 4l.3.8c0 .3 0 .5-.3.6h-.6c-1-.3-2.4-1-4-2.3a8.4 8.4 0 0 1-3-4.4 4 4 0 0 1 .7-3.6c.7-1 1.7-1.8 2.8-2.3 1-.6 2.3-1 3.7-1.4Z" fill="#E57B2D"/>
  <path d="M35 406.5H23.4" stroke="#263238" stroke-width="1.1" stroke-miterlimit="10"/>
  <path d="M504 406.5H53.3" stroke="#263238" stroke-width="1.1" stroke-miterlimit="10"/>
  <path d="M334.4 455c21.2 0 38.3-4.8 38.3-10.6 0-5.9-17.1-10.6-38.3-10.6-21.2 0-38.3 4.7-38.3 10.6 0 5.8 17.1 10.5 38.3 10.5Z" fill="#263238"/>
  <path d="M136.3 468.3c-39.8 0-45.7-5.7-46.3-10.4-.3-2 .3-3.8 1.8-5.3 10.7-11.3 72.7-6.5 158.4 0l37 2.9c86.5 6.4 121.4 5.6 128.6-3.1 1.4-1.8 1.7-4 1-7-3.5-12.6-49.4-12.7-66.7-11.7-.9 0-1.6-.5-1.6-1.4 0-.8.6-1.5 1.4-1.6 6.6-.3 65-3.3 69.7 13.9 1.1 4 .6 7.1-1.5 9.7-8.1 9.8-41.2 10.8-131.2 4.2l-37-2.9c-81.7-6.2-146.2-11.2-156-1-.8.9-1 1.8-1 3 .4 2.9 7.6 9.6 65.7 7.2 32.4-1.3 65-4.8 65.3-4.8a1.5 1.5 0 0 1 .4 3c-.4 0-33 3.5-65.6 4.8-8.5.4-15.9.5-22.4.5Z" fill="#fff" stroke="#263238" stroke-width="1.1" stroke-miterlimit="10"/>
  <path d="M330.4 452.5a45.2 45.2 0 1 0-20.4-88 45.2 45.2 0 0 0 20.4 88Z" fill="#fff"/>
  <mask id="a" style="mask-type:luminance" maskUnits="userSpaceOnUse" x="275" y="363" width="91" height="91">
    <path d="M330.4 452.5a45.2 45.2 0 1 0-20.4-88 45.2 45.2 0 0 0 20.4 88Z" fill="#fff"/>
  </mask>
  <g mask="url(#a)">
    <path d="M320.2 453.6a45.2 45.2 0 0 0 37.3-70.6c-.5 19.7-11.4 48.7-67.9 58.7a45 45 0 0 0 30.6 12Z" fill="#E57B2D"/>
  </g>
  <mask id="b" style="mask-type:luminance" maskUnits="userSpaceOnUse" x="275" y="363" width="91" height="91">
    <path d="M330.4 452.5a45.2 45.2 0 1 0-20.4-88 45.2 45.2 0 0 0 20.4 88Z" fill="#fff"/>
  </mask>
  <g mask="url(#b)">
    <path opacity=".3" d="M320.2 453.6a45.2 45.2 0 0 0 37.3-70.6c-.5 19.7-11.4 48.7-67.9 58.7a45 45 0 0 0 30.6 12Z" fill="#fff"/>
  </g>
  <mask id="c" style="mask-type:luminance" maskUnits="userSpaceOnUse" x="275" y="363" width="91" height="91">
    <path d="M330.4 452.5a45.2 45.2 0 1 0-20.4-88 45.2 45.2 0 0 0 20.4 88Z" fill="#fff"/>
  </mask>
  <g mask="url(#c)" stroke="#263238" stroke-width="1.1" stroke-miterlimit="10" stroke-linecap="round" stroke-linejoin="round">
    <path d="M342.4 426.2c-13.3-13-28.6-17-28.6-17m28.6 17h2.4a83.1 83.1 0 0 0 13.6-17.7m-16 17.7c-18.6-.3-32.7-3.2-43.3-7 .6-28.5 10.8-47.5 16.1-55.5a45.7 45.7 0 0 1 9.7 0m33.5 44.8c-21.2-22.4-41.8-20.1-41.8-20.1s20.6-2.3 41.8 20Zm0 0 3-5.9a58.1 58.1 0 0 0-32.2-22l-1.9-.4m0 0c-5.4-.9-8.9-.1-8.9-.1m9 0 5.3-15a45 45 0 0 0-7.8-1.5m0 0c-3.5 5.6-12.5 23.6-12.5 59.4m40.2-6c-18-17.6-37.8-18.5-37.8-18.5"/>
    <path d="M299 419.3c.7-28.6 11-47.6 16.2-55.6a45 45 0 0 0-12 3 90 90 0 0 0-15.7 47.5c3.3 1.8 7.1 3.5 11.6 5Z"/>
    <path d="M303.1 366.8a45.3 45.3 0 0 0-27.9 38.7c2.8 2.6 6.8 5.7 12.3 8.7a90 90 0 0 1 15.6-47.4Z"/>
    <path d="M354.2 378.6c4.4 5 7.7 10.8 9.6 17.3a57 57 0 0 1-2.5 6.7c-13-16.3-25.8-21.1-34-22.4l5.4-15.1a45 45 0 0 1 12 5.4m9.5 8-3.5 11.7m3.5-11.6c-2.8-3.2-6-5.9-9.5-8.1m0 0-3.9 14.4"/>
    <path d="M361.3 402.6c1.1-2.5 2-4.8 2.5-6.7a45.2 45.2 0 0 1 1.8 14.7c-19.1 26.7-33.8 38.3-43 43.2a45.1 45.1 0 0 1-15.9-2 156 156 0 0 0 16-8.5m38.6-40.7s0 0 0 0m0 0c-.8 1.8-.7 1.8-1.9 3.9l-1 2-1.3 2.2c-3 5.3-12 15.5-11.9 15.5l-7.5 6.5m0 0h.1m0 0c-4.4 3.6-9.3 7.1-15 10.6m0 0h.3"/>
    <path d="M365.6 410.6c-19.1 26.7-33.8 38.3-43 43.2a45.2 45.2 0 0 0 43-43.2Z"/>
    <path d="M285 436.8c5.5 7 13 12.2 21.7 15 6-2.7 11.3-5.6 16-8.5-10.7 2-27.6-3-37.7-6.5Z"/>
    <path d="M322.7 443.3c5.8-3.5 10.7-7 15-10.6-32.5 3.3-52.6-6.8-61-12.5a45.1 45.1 0 0 0 8.3 16.6c10.1 3.6 27 8.5 37.7 6.5Z"/>
    <path d="M342.4 426.2h2.4a102 102 0 0 1-7 6.5c-32.6 3.3-52.7-6.8-61.2-12.5a45.3 45.3 0 0 1-1.4-14.7c2.8 2.6 8.4 8.4 23.9 13.8m43.3 6.9.5.5m-.5-.5c-18.6-.3-32.7-3.2-43.3-7m0 0s0 0 0 0"/>
  </g>
  <path d="M330.4 452.5a45.2 45.2 0 1 0-20.4-88 45.2 45.2 0 0 0 20.4 88Z" stroke="#263238" stroke-width="1.1" stroke-miterlimit="10" stroke-linecap="round" stroke-linejoin="round"/>
  <path d="M403.4 331.3s-3.1-10-12.1-13.7a37.2 37.2 0 0 0-20-.7c-12 2.1-22.6 7-34 11 0 0 4.8-1.8 24.9 8a54 54 0 0 0 24.3 6.2c6.8-.1 17.2-2 16.9-10.8Z" fill="#E57B2D"/>
  <path d="M404.4 301.8s0-10.5-7.6-16.6a37.2 37.2 0 0 0-18.9-6.4c-12.2-1.5-23.7 0-35.8.7 0 0 5.2-.3 21.6 14.8a54 54 0 0 0 21.5 13c6.5 1.8 17 3 19.2-5.5Z" fill="#E57B2D"/>
  <path d="M425.2 340.8s-8.2-6.6-8.2-16.3c0-6.7 3.2-13.2 6.7-18.8 6.4-10.5 14.7-18.5 22.8-27.6 0 0-3.5 3.9-1.8 26.1.6 8.2 0 17.1-3.2 24.9-2.7 6.3-8.3 15.2-16.3 11.7Z" fill="#E57B2D"/>
  <path d="M454.2 357s-1.2-10.5 5.7-17.4c4.7-4.8 11.6-7 18-8.6 12-2.9 23.5-2.7 35.6-3.5 0 0-5.2.3-19.7 17.3A54 54 0 0 1 474 360c-6.3 2.6-16.6 5-19.8-3.2Z" fill="#E57B2D"/>
  <path d="M452.3 319.7s-10.4-1.4-15.4-9.7c-3.5-5.8-4-13-4-19.6.2-12.3 3.2-23.4 5.4-35.4 0 0-1 5.1 12 23.3a54 54 0 0 1 10 23c1 6.7.7 17.3-8 18.4Z" fill="#E57B2D"/>
  <path d="M482.2 301s7.5 7.4 17.1 6.3c6.7-.8 12.8-4.8 18-8.8 9.6-7.6 16.6-16.9 24.7-26 0 0-3.4 4-25.7 5a54 54 0 0 0-24.4 6c-5.9 3.3-14.1 10-9.7 17.5Z" fill="#E57B2D"/>
  <path d="M473.6 293.7s10.4 1.1 17.2-5.8c4.8-4.8 7-11.7 8.4-18.1 2.8-12 2.5-23.5 3.1-35.7 0 0-.2 5.2-17 20a54 54 0 0 0-15.2 19.9c-2.5 6.3-4.7 16.6 3.5 19.7Z" fill="#E57B2D"/>
  <path d="m436.3 395.4-18-44.4-20.9-51.3" stroke="#263238" stroke-width="1.1" stroke-miterlimit="10" stroke-linecap="round" stroke-linejoin="round"/>
  <path d="m440.4 387.8 18-61.7 19.5-38.2" stroke="#263238" stroke-width="1.1" stroke-miterlimit="10" stroke-linecap="round" stroke-linejoin="round"/>
  <path d="m447.4 363.5 18-10.4" stroke="#263238" stroke-width="1.1" stroke-miterlimit="10" stroke-linecap="round" stroke-linejoin="round"/>
  <path d="m458.5 326-9-20" stroke="#263238" stroke-width="1.1" stroke-miterlimit="10" stroke-linecap="round" stroke-linejoin="round"/>
  <path d="m469.7 306 22-9.7" stroke="#263238" stroke-width="1.1" stroke-miterlimit="10" stroke-linecap="round" stroke-linejoin="round"/>
  <path d="m421.7 359.4 7.6-30.6" stroke="#263238" stroke-width="1.1" stroke-miterlimit="10" stroke-linecap="round" stroke-linejoin="round"/>
  <path d="m411.6 336.2-17.6-9.4" stroke="#263238" stroke-width="1.1" stroke-miterlimit="10" stroke-linecap="round" stroke-linejoin="round"/>
  <path d="M445.5 417.6h-15c-5 0-9.4-3.6-10.4-8.6l-5.3-28.1h46.4L456 409c-1 5-5.3 8.6-10.4 8.6Z" fill="#263238" stroke="#263238" stroke-width="1.1" stroke-miterlimit="10" stroke-linecap="round" stroke-linejoin="round"/>
  <path d="M240 358.3c-28.2 0-45-25-51-46.9l-.2-.7a8.2 8.2 0 1 1 16-4.2v.6c4.6 16.7 17 35.7 37 34.6 7.9-.4 14.2-3.5 19.4-9.5 11-12.5 15.8-39.7 14.7-53.4a6.6 6.6 0 1 1 13.2-1c1.2 15.2-.4 48-15.4 65.2a43 43 0 0 1-33.8 15.3Z" fill="#fff"/>
  <mask id="d" style="mask-type:luminance" maskUnits="userSpaceOnUse" x="188" y="271" width="102" height="88">
    <path d="M240 358.3c-28.2 0-45-25-51-46.9l-.2-.7a8.2 8.2 0 1 1 16-4.2v.6c4.6 16.7 17 35.7 37 34.6 7.9-.4 14.2-3.5 19.4-9.5 11-12.5 15.8-39.7 14.7-53.4a6.6 6.6 0 1 1 13.2-1c1.2 15.2-.4 48-15.4 65.2a43 43 0 0 1-33.8 15.3Z" fill="#fff"/>
  </mask>
  <g mask="url(#d)">
    <path d="M282 271.7a6.6 6.6 0 0 0-6 7c.5 6.8-.4 16.7-2.7 26.5a29 29 0 0 1 9.8 1.3 52 52 0 0 1-9.7 26.3 47.7 47.7 0 0 1-44.9 20.4c-6.4-.9-13.7-4.3-19.9-7.7a44.9 44.9 0 0 0 65-2.5c15-17.2 16.7-50 15.5-65.3a6.6 6.6 0 0 0-7.1-6Z" fill="#E57B2D"/>
  </g>
  <mask id="e" style="mask-type:luminance" maskUnits="userSpaceOnUse" x="188" y="271" width="102" height="88">
    <path d="M240 358.3c-28.2 0-45-25-51-46.9l-.2-.7a8.2 8.2 0 1 1 16-4.2v.6c4.6 16.7 17 35.7 37 34.6 7.9-.4 14.2-3.5 19.4-9.5 11-12.5 15.8-39.7 14.7-53.4a6.6 6.6 0 1 1 13.2-1c1.2 15.2-.4 48-15.4 65.2a43 43 0 0 1-33.8 15.3Z" fill="#fff"/>
  </mask>
  <g mask="url(#e)">
    <path opacity=".5" d="M282 271.7a6.6 6.6 0 0 0-6 7c.5 6.8-.4 16.7-2.7 26.5a29 29 0 0 1 9.8 1.3 52 52 0 0 1-9.7 26.3 47.7 47.7 0 0 1-44.9 20.4c-6.4-.9-13.7-4.3-19.9-7.7a44.9 44.9 0 0 0 65-2.5c15-17.2 16.7-50 15.5-65.3a6.6 6.6 0 0 0-7.1-6Z" fill="#fff"/>
  </g>
  <path d="M240 358.3c-28.2 0-45-25-51-46.9l-.2-.7a8.2 8.2 0 1 1 16-4.2v.6c4.6 16.7 17 35.7 37 34.6 7.9-.4 14.2-3.5 19.4-9.5 11-12.5 15.8-39.7 14.7-53.4a6.6 6.6 0 1 1 13.2-1c1.2 15.2-.4 48-15.4 65.2a43 43 0 0 1-33.8 15.3Z" stroke="#263238" stroke-width="1.1" stroke-miterlimit="10" stroke-linecap="round" stroke-linejoin="round"/>
  <path d="M223.7 341.2c.7-3-6.7 1.7-12.9 6.2 2.3 2 4.8 3.7 7.4 5.2 2.2-3.6 4.9-8.4 5.5-11.4Z" fill="#E57B2D" stroke="#263238" stroke-width="1.1" stroke-miterlimit="10" stroke-linecap="round" stroke-linejoin="round"/>
  <path d="M240 358.3a49.3 49.3 0 0 0 10.6-1.2 60.8 60.8 0 0 0-9.6-11c-1.6-.6-4.7 7.2-6.3 11.9 1.7.2 3.4.3 5.2.3Z" fill="#E57B2D" stroke="#263238" stroke-width="1.1" stroke-miterlimit="10" stroke-linecap="round" stroke-linejoin="round"/>
  <path d="m204.9 307.1-.2-.6a8.2 8.2 0 0 0-16 4.2l.3.7c2 7.3 5.2 15 9.6 21.8l15-7.1a63 63 0 0 1-8.7-19Z" fill="#E57B2D" stroke="#263238" stroke-width="1.1" stroke-miterlimit="10" stroke-linecap="round" stroke-linejoin="round"/>
  <path d="M273.7 343c1.1-1.3 2.2-2.7 3.2-4.2-4.8-1.6-12-3.8-14.6-3.6-3.1.3 1.1 10.4 3.3 15.1 3-2 5.6-4.4 8-7.3Z" fill="#E57B2D" stroke="#263238" stroke-width="1.1" stroke-miterlimit="10" stroke-linecap="round" stroke-linejoin="round"/>
  <path d="M274 316c-.6 1 5.6 5.6 9.8 8.5 1.3-4 2.3-8 3.1-12-5 1-12.5 2.6-13 3.6Z" fill="#E57B2D" stroke="#263238" stroke-width="1.1" stroke-miterlimit="10" stroke-linecap="round" stroke-linejoin="round"/>
  <path d="M289 297.4c.3-3.6.4-7 .4-10.1-4.3 2.3-9.5 5.6-9.5 7.8 0 2.1 4.8 2.4 9 2.3Z" fill="#E57B2D" stroke="#263238" stroke-width="1.1" stroke-miterlimit="10" stroke-linecap="round" stroke-linejoin="round"/>
  <path d="M221 199.8s-12.2 35.5-5.6 63.1a54 54 0 0 0 30.8 36.8s-18 6.2-13.8 16c4 9.7 19.4 3.4 24.5.3 5-3.2 11.2-12.6 12.2-18.9 1-6.2.6-9.7.6-9.7s20.4-2.2 34.2-13.5c0 0 12.3 9.8 21 7.9 8.8-2 21.4-17.6 20.1-31.7-1.2-14.2-9.4-14.2-14.4-12-5 2.2-6.9 4.4-6.9 4.4s7.2-8.8 0-21-20-13.2-20-13.2-3.9-20-15.2-27.6c-11.2-7.5-51.4-15.4-67.4 19.2Z" fill="#fff"/>
  <mask id="f" style="mask-type:luminance" maskUnits="userSpaceOnUse" x="213" y="174" width="133" height="147">
    <path d="M221 199.8s-12.2 35.5-5.6 63.1c6.6 27.7 30.8 36.8 30.8 36.8s-18 6.2-13.8 16c4 9.7 19.4 3.4 24.4.3 5-3.2 11.3-12.6 12.3-18.9 1-6.2.6-9.7.6-9.7s20.4-2.2 34.2-13.5c0 0 12.3 9.8 21 7.9 8.8-2 21.4-17.6 20.1-31.7-1.2-14.2-9.4-14.2-14.4-12-5 2.2-6.9 4.4-6.9 4.4s7.2-8.8 0-21a27.4 27.4 0 0 0-20-13.2s-3.9-20-15.2-27.6c-11.3-7.5-51.4-15.4-67.4 19.2Z" fill="#fff"/>
  </mask>
  <g mask="url(#f)">
    <path d="M314.3 212a71.2 71.2 0 0 1-55.3 34.4c-25 2.2-39-2.7-45.4-6.2.8-21.1 7.5-40.3 7.5-40.3 16-34.6 56.2-26.7 67.5-19.2 11.2 7.5 15 27.6 15 27.6s5.1.4 10.7 3.8Zm16.3 26.1c-5 2.2-6.9 4.4-6.9 4.4s2.2-2.6 3-7c-17 8.4-15.7 26.4-17.8 26.4-2.6 0-3.9-9-3.9-9s-3.2 13-22.7 22c-19.4 9-41.4 2-41.4 2s4.5 10.3-7.2 9c-4-.4-6.9-1.8-9-3.3 9.3 12.5 21.5 17 21.5 17s-18 6.3-13.8 16c4 9.8 19.4 3.5 24.4.4 5-3.2 11.3-12.6 12.3-18.9 1-6.2.6-9.7.6-9.7s20.4-2.2 34.2-13.5c0 0 12.3 9.8 21 7.9 8.8-2 21.4-17.6 20.1-31.7-1.2-14.2-9.4-14.2-14.4-12Z" fill="#E57B2D"/>
  </g>
  <mask id="g" style="mask-type:luminance" maskUnits="userSpaceOnUse" x="213" y="174" width="133" height="147">
    <path d="M221 199.8s-12.2 35.5-5.6 63.1c6.6 27.7 30.8 36.8 30.8 36.8s-18 6.2-13.8 16c4 9.7 19.4 3.4 24.4.3 5-3.2 11.3-12.6 12.3-18.9 1-6.2.6-9.7.6-9.7s20.4-2.2 34.2-13.5c0 0 12.3 9.8 21 7.9 8.8-2 21.4-17.6 20.1-31.7-1.2-14.2-9.4-14.2-14.4-12-5 2.2-6.9 4.4-6.9 4.4s7.2-8.8 0-21a27.4 27.4 0 0 0-20-13.2s-3.9-20-15.2-27.6c-11.3-7.5-51.4-15.4-67.4 19.2Z" fill="#fff"/>
  </mask>
  <g mask="url(#g)">
    <path opacity=".5" d="M314.3 212a71.2 71.2 0 0 1-55.3 34.4c-25 2.2-39-2.7-45.4-6.2.8-21.1 7.5-40.3 7.5-40.3 16-34.6 56.2-26.7 67.5-19.2 11.2 7.5 15 27.6 15 27.6s5.1.4 10.7 3.8Zm16.3 26.1c-5 2.2-6.9 4.4-6.9 4.4s2.2-2.6 3-7c-17 8.4-15.7 26.4-17.8 26.4-2.6 0-3.9-9-3.9-9s-3.2 13-22.7 22c-19.4 9-41.4 2-41.4 2s4.5 10.3-7.2 9c-4-.4-6.9-1.8-9-3.3 9.3 12.5 21.5 17 21.5 17s-18 6.3-13.8 16c4 9.8 19.4 3.5 24.4.4 5-3.2 11.3-12.6 12.3-18.9 1-6.2.6-9.7.6-9.7s20.4-2.2 34.2-13.5c0 0 12.3 9.8 21 7.9 8.8-2 21.4-17.6 20.1-31.7-1.2-14.2-9.4-14.2-14.4-12Z" fill="#fff"/>
  </g>
  <mask id="h" style="mask-type:luminance" maskUnits="userSpaceOnUse" x="213" y="174" width="133" height="147">
    <path d="M221 199.8s-12.2 35.5-5.6 63.1c6.6 27.7 30.8 36.8 30.8 36.8s-18 6.2-13.8 16c4 9.7 19.4 3.4 24.4.3 5-3.2 11.3-12.6 12.3-18.9 1-6.2.6-9.7.6-9.7s20.4-2.2 34.2-13.5c0 0 12.3 9.8 21 7.9 8.8-2 21.4-17.6 20.1-31.7-1.2-14.2-9.4-14.2-14.4-12-5 2.2-6.9 4.4-6.9 4.4s7.2-8.8 0-21a27.4 27.4 0 0 0-20-13.2s-3.9-20-15.2-27.6c-11.3-7.5-51.4-15.4-67.4 19.2Z" fill="#fff"/>
  </mask>
  <g mask="url(#h)">
    <path d="M269.7 287.4s-20.9 1.7-35.5-16.3" stroke="#263238" stroke-width="1.1" stroke-miterlimit="10" stroke-linecap="round" stroke-linejoin="round"/>
  </g>
  <path d="M221 199.8s-12.2 35.5-5.6 63.1a54 54 0 0 0 30.8 36.8s-18 6.2-13.8 16c4 9.7 19.4 3.4 24.5.3 5-3.2 11.2-12.6 12.2-18.9 1-6.2.6-9.7.6-9.7s20.4-2.2 34.2-13.5c0 0 12.3 9.8 21 7.9 8.8-2 21.4-17.6 20.1-31.7-1.2-14.2-9.4-14.2-14.4-12-5 2.2-6.9 4.4-6.9 4.4s7.2-8.8 0-21-20-13.2-20-13.2-3.9-20-15.2-27.6c-11.2-7.5-51.4-15.4-67.4 19.2Z" stroke="#263238" stroke-width="1.1" stroke-miterlimit="10" stroke-linecap="round" stroke-linejoin="round"/>
  <path d="M323.7 242.5s-6.6 4.4-9.7 18" stroke="#263238" stroke-width="1.1" stroke-miterlimit="10" stroke-linecap="round" stroke-linejoin="round"/>
  <path d="M335.8 248.3c-.8 2.3-2.9 3.7-4.7 3-1.8-.6-2.7-3-1.9-5.2.8-2.3 2.9-3.7 4.7-3 1.8.5 2.7 3 1.9 5.2Z" fill="#fff" stroke="#263238" stroke-width="1.1" stroke-miterlimit="10" stroke-linecap="round" stroke-linejoin="round"/>
  <path d="M342.3 252.4c-.8 2.3-2.9 3.7-4.7 3-1.8-.6-2.7-3-1.9-5.2.8-2.3 2.9-3.7 4.7-3 1.8.5 2.7 2.9 1.9 5.2Z" fill="#fff" stroke="#263238" stroke-width="1.1" stroke-miterlimit="10" stroke-linecap="round" stroke-linejoin="round"/>
  <path d="M343.7 258.5c-.6 1.7-2.1 2.7-3.4 2.2-1.3-.4-2-2.1-1.4-3.8.6-1.7 2-2.7 3.4-2.2 1.3.4 2 2.1 1.4 3.8Z" fill="#fff" stroke="#263238" stroke-width="1.1" stroke-miterlimit="10" stroke-linecap="round" stroke-linejoin="round"/>
  <path d="M335.4 267c-2.3 4-6.8 5.8-10.2 4-3.3-1.9-4.2-6.7-1.9-10.8 2.3-4 6.8-5.9 10.2-4 3.3 1.8 4.2 6.6 1.9 10.7Z" fill="#fff" stroke="#263238" stroke-width="1.1" stroke-miterlimit="10" stroke-linecap="round" stroke-linejoin="round"/>
  <path d="M246.2 299.7s5.6 3.1 13.5.9" stroke="#263238" stroke-width="1.1" stroke-miterlimit="10" stroke-linecap="round" stroke-linejoin="round"/>
  <path d="M232.4 315.7s1.2-5.4 9-9.1" stroke="#263238" stroke-width="1.1" stroke-miterlimit="10" stroke-linecap="round" stroke-linejoin="round"/>
  <path d="M240.2 320.4s3.2-7.6 8.5-11" stroke="#263238" stroke-width="1.1" stroke-miterlimit="10" stroke-linecap="round" stroke-linejoin="round"/>
  <path d="M116.4 233.5c-2.7-2.1-4-5.1-4-8.9v-29.9H35.2a13 13 0 0 1-10-4.2c-2.6-2.8-3.9-6-3.9-9.9 0-3 .9-5.7 2.6-8.4l73.9-116a25.2 25.2 0 0 1 22-13c5.4 0 10 1.7 13.6 4.8 3.6 3.2 5.4 7.9 5.4 14v113h19.6c3.2 0 5.6 1 7.3 2.9 1.7 1.9 2.6 4.2 2.6 7 0 2.6-.9 5-2.6 6.9-1.7 2-4.1 3-7.3 3h-19.8v29.8a11 11 0 0 1-3.9 9 14.4 14.4 0 0 1-18.3 0Zm-4-58.6V71L47.7 175h64.7Z" fill="#263238"/>
  <path d="M223.5 234.2c-8-3.7-14.6-8.6-19.6-14.7-5-6-9-13.5-12.3-22.2-3.2-8.8-5.4-17.8-6.7-27-1.2-9.2-1.9-19.2-1.9-30.1 0-66.5 22.7-99.8 68.1-99.8 45.3 0 68 33.3 68 99.8 0 10.8-.7 20.8-1.9 30s-3.4 18.2-6.6 27a75.7 75.7 0 0 1-12.3 22.2c-5 6-11.6 11-19.6 14.7-8 3.7-17.2 5.5-27.6 5.5a66 66 0 0 1-27.6-5.4Zm41-19.1c4-1.8 7.5-4 10.2-7 2.8-2.8 5.2-6.3 7.2-10.6 2-4.2 3.6-8.5 4.8-12.8 1.2-4.3 2-9.2 2.8-14.7a206 206 0 0 0 1.7-29.8c0-5.6-.2-10.8-.4-15.5a184.9 184.9 0 0 0-4.2-30 71.5 71.5 0 0 0-4.9-12.7c-2-4.2-4.4-7.6-7.1-10.4-2.8-2.8-6.1-5-10.1-6.7-4-1.7-8.4-2.5-13.4-2.5s-9.4.8-13.4 2.5c-4 1.6-7.3 3.8-10 6.6a40.3 40.3 0 0 0-7.2 10.3 65 65 0 0 0-4.8 12.8 186.8 186.8 0 0 0-4.5 45.6c0 5.3 0 10.3.3 14.9.2 4.6.7 9.6 1.4 15a75.3 75.3 0 0 0 7.6 27.5 31.3 31.3 0 0 0 17.2 17.4c4 1.8 8.4 2.7 13.4 2.7s9.4-.9 13.5-2.6Z" fill="#263238"/>
  <path d="M436 233.5c-2.8-2.1-4.1-5.1-4.1-8.9v-29.9h-77.1a13 13 0 0 1-10.1-4.2c-2.6-2.8-3.9-6-3.9-9.9 0-3 .9-5.7 2.6-8.4l73.9-116a25.2 25.2 0 0 1 22-13c5.4 0 10 1.7 13.6 4.8 3.6 3.2 5.4 7.9 5.4 14v113h19.6c3.2 0 5.6 1 7.3 2.9 1.7 1.9 2.6 4.2 2.6 7 0 2.6-.9 5-2.6 6.9-1.7 2-4.1 3-7.3 3h-19.8v29.8a11 11 0 0 1-3.9 9 14.4 14.4 0 0 1-18.3 0Zm-4.1-58.6V71l-64.7 104h64.7Z" fill="#263238"/>
  <path d="M195.6 182s-13.1 18.5-15 37.3c-1.9 18.8.3 31.4 6 36.1 5.6 4.7 11.2 2.8 14.4-1.6 3.1-4.4-1.9-19.7-1.9-19.7s5.3-14.8 13.5-25.1c8.2-10.4 9.7-12 9.7-12s-14.1-16-26.7-15Z" fill="#fff"/>
  <mask id="i" style="mask-type:luminance" maskUnits="userSpaceOnUse" x="179" y="181" width="44" height="78">
    <path d="M195.6 182s-13.1 18.5-15 37.3c-1.9 18.8.3 31.4 6 36.1 5.6 4.7 11.2 2.8 14.4-1.6 3.1-4.4-1.9-19.7-1.9-19.7s5.3-14.8 13.5-25.1c8.2-10.4 9.7-12 9.7-12s-14.1-16-26.7-15Z" fill="#fff"/>
  </mask>
  <g mask="url(#i)">
    <path d="M195.6 182s-3.8 5.4-7.6 13.3c6.3 2.5 16 7.7 22.3 16.9l2.3-3.2c8.2-10.4 9.7-12 9.7-12s-14.1-16-26.7-15Z" fill="#E57B2D"/>
  </g>
  <mask id="j" style="mask-type:luminance" maskUnits="userSpaceOnUse" x="179" y="181" width="44" height="78">
    <path d="M195.6 182s-13.1 18.5-15 37.3c-1.9 18.8.3 31.4 6 36.1 5.6 4.7 11.2 2.8 14.4-1.6 3.1-4.4-1.9-19.7-1.9-19.7s5.3-14.8 13.5-25.1c8.2-10.4 9.7-12 9.7-12s-14.1-16-26.7-15Z" fill="#fff"/>
  </mask>
  <g mask="url(#j)">
    <path opacity=".5" d="M195.6 182s-3.8 5.4-7.6 13.3c6.3 2.5 16 7.7 22.3 16.9l2.3-3.2c8.2-10.4 9.7-12 9.7-12s-14.1-16-26.7-15Z" fill="#fff"/>
  </g>
  <path d="M195.6 182s-13.1 18.5-15 37.3c-1.9 18.8.3 31.4 6 36.1 5.6 4.7 11.2 2.8 14.4-1.6 3.1-4.4-1.9-19.7-1.9-19.7s5.3-14.8 13.5-25.1c8.2-10.4 9.7-12 9.7-12s-14.1-16-26.7-15Z" stroke="#263238" stroke-width="1.1" stroke-miterlimit="10" stroke-linecap="round" stroke-linejoin="round"/>
  <path d="M186.5 255.4s-2.2-5-2.2-12.9" stroke="#263238" stroke-width="1.1" stroke-miterlimit="10" stroke-linecap="round" stroke-linejoin="round"/>
  <path d="M195 257.3s-3.1-5.3-3.4-14.5" stroke="#263238" stroke-width="1.1" stroke-miterlimit="10" stroke-linecap="round" stroke-linejoin="round"/>
  <path d="M199.7 215.5c0-3.3-6.3-9.7-15-12.5-1.2 3-2.2 6.1-3 9.4 2.4.4 6.7 1.4 9.9 3.1 4.7 2.6 8.1 3.8 8.1 0Z" fill="#E57B2D" stroke="#263238" stroke-width="1.1" stroke-miterlimit="10" stroke-linecap="round" stroke-linejoin="round"/>
  <path d="M194.9 183c-1.1 1.7-3.3 5.1-5.6 9.6 2.3.6 4.9 1.6 7.6 3.2 9.7 5.6 11.6 6.2 8.5-2-2-5-6.5-8.5-10.5-10.7Z" fill="#E57B2D" stroke="#263238" stroke-width="1.1" stroke-miterlimit="10" stroke-linecap="round" stroke-linejoin="round"/>
  <path d="M298.9 172.8s15 17.2 18.6 35.7c3.8 18.6 2.8 31.3-2.4 36.5-5.1 5.3-11 4-14.5-.1s0-19.9 0-19.9-6.8-14.2-16-23.7c-9-9.5-10.8-10.9-10.8-10.9s12.5-17.3 25-17.6Z" fill="#fff"/>
  <mask id="k" style="mask-type:luminance" maskUnits="userSpaceOnUse" x="273" y="172" width="47" height="77">
    <path d="M298.9 172.8s15 17.2 18.6 35.7c3.8 18.6 2.8 31.3-2.4 36.5-5.1 5.3-11 4-14.5-.1s0-19.9 0-19.9-6.8-14.2-16-23.7c-9-9.5-10.8-10.9-10.8-10.9s12.5-17.3 25-17.6Z" fill="#fff"/>
  </mask>
  <g mask="url(#k)">
    <path d="M298.9 172.8c-12.6.3-25 17.6-25 17.6a207 207 0 0 0 15.6 16.6 53.1 53.1 0 0 1 19.7-19.3c-5-8.8-10.3-14.9-10.3-14.9Z" fill="#E57B2D"/>
  </g>
  <mask id="l" style="mask-type:luminance" maskUnits="userSpaceOnUse" x="273" y="172" width="47" height="77">
    <path d="M298.9 172.8s15 17.2 18.6 35.7c3.8 18.6 2.8 31.3-2.4 36.5-5.1 5.3-11 4-14.5-.1s0-19.9 0-19.9-6.8-14.2-16-23.7c-9-9.5-10.8-10.9-10.8-10.9s12.5-17.3 25-17.6Z" fill="#fff"/>
  </mask>
  <g mask="url(#l)">
    <path opacity=".5" d="M298.9 172.8c-12.6.3-25 17.6-25 17.6a207 207 0 0 0 15.6 16.6 53.1 53.1 0 0 1 19.7-19.3c-5-8.8-10.3-14.9-10.3-14.9Z" fill="#fff"/>
  </g>
  <path d="M298.9 172.8s15 17.2 18.6 35.7c3.8 18.6 2.8 31.3-2.4 36.5-5.1 5.3-11 4-14.5-.1s0-19.9 0-19.9-6.8-14.2-16-23.7c-9-9.5-10.8-10.9-10.8-10.9s12.5-17.3 25-17.6Z" stroke="#263238" stroke-width="1.1" stroke-miterlimit="10" stroke-linecap="round" stroke-linejoin="round"/>
  <path d="M315.1 245s1.7-5.2 1-13" stroke="#263238" stroke-width="1.1" stroke-miterlimit="10" stroke-linecap="round" stroke-linejoin="round"/>
  <path d="M306.9 247.7s2.6-5.6 2-14.7" stroke="#263238" stroke-width="1.1" stroke-miterlimit="10" stroke-linecap="round" stroke-linejoin="round"/>
  <path d="M298.1 206.6c-.3-3.3 5.3-10.3 13.8-14 1.4 3 2.7 6 3.8 9.1-2.3.7-6.4 2.1-9.5 4.1-4.4 3-7.7 4.6-8 .8Z" fill="#E57B2D" stroke="#263238" stroke-width="1.1" stroke-miterlimit="10" stroke-linecap="round" stroke-linejoin="round"/>
  <path d="M299.8 173.9c1.2 1.5 3.7 4.7 6.4 9-2.2.7-4.7 2-7.2 3.8-9.1 6.6-11 7.4-8.6-1 1.4-5.3 5.6-9.2 9.4-11.8Z" fill="#E57B2D" stroke="#263238" stroke-width="1.1" stroke-miterlimit="10" stroke-linecap="round" stroke-linejoin="round"/>
  <path d="M194.4 166s-3.9 13-2.4 18.4c1.4 5.3 8.2.5 15 6.3 6.8 5.8 13.1 16.3 38.9 18.3 25.7 1.9 41.2-12 46.6-19.8 5.3-7.7 4.8-17 14-17.4 9.3-.5 1.5-18.5-1.4-21.4 0 0 18-26.7 18-33.5 0-6.8-17-5.3-37.9 1 0 0-15.5-8.3-43.7-3.4-28.2 4.8-36.4 13-36.4 13s-35 4.5-37.4 8.8c-2.4 4.4 4.9 22.8 26.7 29.6Z" fill="#fff"/>
  <mask id="m" style="mask-type:luminance" maskUnits="userSpaceOnUse" x="167" y="112" width="157" height="98">
    <path d="M194.4 166s-3.9 13-2.4 18.4c1.4 5.3 8.2.5 15 6.3 6.8 5.8 13.1 16.3 38.9 18.3 25.7 1.9 41.2-12 46.6-19.8 5.3-7.7 4.8-17 14-17.4 9.3-.5 1.5-18.5-1.4-21.4 0 0 18-26.7 18-33.5 0-6.8-17-5.3-37.9 1 0 0-15.5-8.3-43.7-3.4-28.2 4.8-36.4 13-36.4 13s-35 4.5-37.4 8.8c-2.4 4.4 4.9 22.8 26.7 29.6Z" fill="#fff"/>
  </mask>
  <g mask="url(#m)">
    <path d="M306.6 171.8c9.2-.5 1.4-18.5-1.5-21.4 0 0 3.4-5 7.3-11.4-10.5-5.4-20.7-8.4-23.4-5.4-5.9 6.6-2.7 19.2 0 31.5 2.6 12.3-8 17.6-15.5 28.3-7.5 10.6-18.1-1.1-18.1-1.1-3.8 15.4-19.8 5.3-19.8 5.3-12.2-3.7-33-16-28.8-24.5 4.3-8.5 5.4-16.5-2-23.5-7.6-7-37.3-12.7-37.3-12.7-1.6 5.3 6 22.5 27 29 0 0-4 13.1-2.5 18.5 1.4 5.3 8.2.5 15 6.3 6.8 5.8 13.1 16.3 38.9 18.2 25.7 2 41.2-11.9 46.6-19.7 5.3-7.7 4.8-17 14-17.4Z" fill="#E57B2D"/>
  </g>
  <mask id="n" style="mask-type:luminance" maskUnits="userSpaceOnUse" x="167" y="112" width="157" height="98">
    <path d="M194.4 166s-3.9 13-2.4 18.4c1.4 5.3 8.2.5 15 6.3 6.8 5.8 13.1 16.3 38.9 18.3 25.7 1.9 41.2-12 46.6-19.8 5.3-7.7 4.8-17 14-17.4 9.3-.5 1.5-18.5-1.4-21.4 0 0 18-26.7 18-33.5 0-6.8-17-5.3-37.9 1 0 0-15.5-8.3-43.7-3.4-28.2 4.8-36.4 13-36.4 13s-35 4.5-37.4 8.8c-2.4 4.4 4.9 22.8 26.7 29.6Z" fill="#fff"/>
  </mask>
  <g mask="url(#n)">
    <path opacity=".5" d="M306.6 171.8c9.2-.5 1.4-18.5-1.5-21.4 0 0 3.4-5 7.3-11.4-10.5-5.4-20.7-8.4-23.4-5.4-5.9 6.6-2.7 19.2 0 31.5 2.6 12.3-8 17.6-15.5 28.3-7.5 10.6-18.1-1.1-18.1-1.1-3.8 15.4-19.8 5.3-19.8 5.3-12.2-3.7-33-16-28.8-24.5 4.3-8.5 5.4-16.5-2-23.5-7.6-7-37.3-12.7-37.3-12.7-1.6 5.3 6 22.5 27 29 0 0-4 13.1-2.5 18.5 1.4 5.3 8.2.5 15 6.3 6.8 5.8 13.1 16.3 38.9 18.2 25.7 2 41.2-11.9 46.6-19.7 5.3-7.7 4.8-17 14-17.4Z" fill="#fff"/>
  </g>
  <mask id="o" style="mask-type:luminance" maskUnits="userSpaceOnUse" x="167" y="112" width="157" height="98">
    <path d="M194.4 166s-3.9 13-2.4 18.4c1.4 5.3 8.2.5 15 6.3 6.8 5.8 13.1 16.3 38.9 18.3 25.7 1.9 41.2-12 46.6-19.8 5.3-7.7 4.8-17 14-17.4 9.3-.5 1.5-18.5-1.4-21.4 0 0 18-26.7 18-33.5 0-6.8-17-5.3-37.9 1 0 0-15.5-8.3-43.7-3.4-28.2 4.8-36.4 13-36.4 13s-35 4.5-37.4 8.8c-2.4 4.4 4.9 22.8 26.7 29.6Z" fill="#fff"/>
  </mask>
  <g mask="url(#o)">
    <path d="M268.6 174.7c.4 3-6.5 6.4-15.2 7.4-8.8 1-16.2-.6-16.6-3.7-.3-3 6.5-6.4 15.3-7.4 8.7-1 16.1.6 16.5 3.7Z" fill="#E57B2D"/>
  </g>
  <mask id="p" style="mask-type:luminance" maskUnits="userSpaceOnUse" x="167" y="112" width="157" height="98">
    <path d="M194.4 166s-3.9 13-2.4 18.4c1.4 5.3 8.2.5 15 6.3 6.8 5.8 13.1 16.3 38.9 18.3 25.7 1.9 41.2-12 46.6-19.8 5.3-7.7 4.8-17 14-17.4 9.3-.5 1.5-18.5-1.4-21.4 0 0 18-26.7 18-33.5 0-6.8-17-5.3-37.9 1 0 0-15.5-8.3-43.7-3.4-28.2 4.8-36.4 13-36.4 13s-35 4.5-37.4 8.8c-2.4 4.4 4.9 22.8 26.7 29.6Z" fill="#fff"/>
  </mask>
  <g mask="url(#p)">
    <path opacity=".5" d="M268.6 174.7c.4 3-6.5 6.4-15.2 7.4-8.8 1-16.2-.6-16.6-3.7-.3-3 6.5-6.4 15.3-7.4 8.7-1 16.1.6 16.5 3.7Z" fill="#fff"/>
  </g>
  <path d="M194.4 166s-3.9 13-2.4 18.4c1.4 5.3 8.2.5 15 6.3 6.8 5.8 13.1 16.3 38.9 18.3 25.7 1.9 41.2-12 46.6-19.8 5.3-7.7 4.8-17 14-17.4 9.3-.5 1.5-18.5-1.4-21.4 0 0 18-26.7 18-33.5 0-6.8-17-5.3-37.9 1 0 0-15.5-8.3-43.7-3.4-28.2 4.8-36.4 13-36.4 13s-35 4.5-37.4 8.8c-2.4 4.4 4.9 22.8 26.7 29.6Z" stroke="#263238" stroke-width="1.1" stroke-miterlimit="10"/>
  <path d="M294.8 127c-12.5 8.5-8.1 17-2.5 21.7 3.5 2.9 9 2.5 12.8 1.7 0 0 18-26.7 18-33.5 0 0-15.7 1.7-28.3 10.1Z" fill="#E57B2D" stroke="#263238" stroke-width="1.1" stroke-miterlimit="10"/>
  <path d="M167.5 137c-1.6 5.2 6 22.4 27 29 0 0 15.9-1.6 10.6-14.5-5-12-30.2-15-37.6-14.6Z" fill="#E57B2D" stroke="#263238" stroke-width="1.1" stroke-miterlimit="10"/>
  <path d="m241.5 114.5-4.8.9c2.6 12.7 6.7 34 10.4 34 3.9 0 6.6-23.3 7.8-36.4-4.1.2-8.6.6-13.4 1.5Z" fill="#E57B2D" stroke="#263238" stroke-width="1.1" stroke-miterlimit="10"/>
  <path d="M227 145.6c3.9-2.3 3.3-19.4 2.7-28.6-4.7 1.2-8.6 2.4-11.7 3.6 1.4 8.7 5 27.4 9 25Z" fill="#E57B2D" stroke="#263238" stroke-width="1.1" stroke-miterlimit="10"/>
  <path d="M264.4 137.7c4 1.4 6.1-12.8 7.4-23.7a80 80 0 0 0-12-1c-.2 9 .3 23.2 4.6 24.7Z" fill="#E57B2D" stroke="#263238" stroke-width="1.1" stroke-miterlimit="10"/>
  <path d="M259.1 186.8c-2.1-.5-6.7-1.1-11 1.4a1 1 0 0 0-.1 1.7l6.7 6.3a1 1 0 0 0 1.7-.4l3.4-7.5a1 1 0 0 0-.7-1.5Z" fill="#E57B2D" stroke="#263238" stroke-width="1.1" stroke-miterlimit="10" stroke-linecap="round" stroke-linejoin="round"/>
  <path d="M243.2 176.3c1 2.4.5 4.8-.8 5.3-1.4.6-3.3-1-4.2-3.4-1-2.4-.6-4.8.8-5.3 1.4-.6 3.3 1 4.2 3.4Z" fill="#263238"/>
  <path d="M261.4 174.6c-.4 2.5.4 4.8 1.8 5 1.4.4 3-1.5 3.5-4 .5-2.6-.3-4.9-1.8-5.2-1.4-.2-3 1.6-3.5 4.2Z" fill="#263238"/>
  <path d="M256.4 195.8s-9 12.2-17.1 0" stroke="#263238" stroke-width="1.1" stroke-miterlimit="10" stroke-linecap="round" stroke-linejoin="round"/>
  <path d="M254.7 196.2s6 6.2 12.2 2.7c6.3-3.4 2.5-8.8 2.5-8.8" stroke="#263238" stroke-width="1.1" stroke-miterlimit="10" stroke-linecap="round" stroke-linejoin="round"/>
  <path d="M227.3 166.6s2.2-7.9 12.6-6" stroke="#263238" stroke-width="3.3" stroke-miterlimit="10" stroke-linecap="round" stroke-linejoin="round"/>
  <path d="M258.7 159.4s7.9-4.7 15.1 2.8" stroke="#263238" stroke-width="3.3" stroke-miterlimit="10" stroke-linecap="round" stroke-linejoin="round"/>
  <path d="m221.4 187.6 7.5 1.9" stroke="#263238" stroke-width="1.1" stroke-miterlimit="10" stroke-linecap="round"/>
  <path d="m228 192.3-6.6 1.3" stroke="#263238" stroke-width="1.1" stroke-miterlimit="10" stroke-linecap="round"/>
  <path d="m229.2 195.8-4.7 2.5" stroke="#263238" stroke-width="1.1" stroke-miterlimit="10" stroke-linecap="round"/>
  <path d="m277 184.2 6.5-1.6" stroke="#263238" stroke-width="1.1" stroke-miterlimit="10" stroke-linecap="round"/>
  <path d="M278.2 187.3h4.4" stroke="#263238" stroke-width="1.1" stroke-miterlimit="10" stroke-linecap="round"/>
  <path d="m279.1 190.4 6 1.6" stroke="#263238" stroke-width="1.1" stroke-miterlimit="10" stroke-linecap="round"/>
</svg>
