<?xml version="1.0"?>
<svg xmlns="http://www.w3.org/2000/svg" xmlns:xlink="http://www.w3.org/1999/xlink" version="1.1" xml:space="preserve">
  <defs>
    <symbol id="arrow-right" width="100%" height="100%" viewBox="0 0 24 24" fill="none">
      <path d="M18 8.5L22 12.5M22 12.5L18 16.5M22 12.5H2" stroke="currentColor" stroke-width="1.5" stroke-linecap="round" stroke-linejoin="round" />
    </symbol>
    <symbol id="logo" width="100%" height="100%" viewBox="0 0 40 52" fill="none">
      <path d="M21.792 0.463997C27.3387 0.463997 31.7333 2.192 34.976 5.648C38.2613 9.104 39.904 13.7973 39.904 19.728C39.904 23.312 39.0293 27.0027 37.28 30.8C35.5307 34.5547 33.2053 37.968 30.304 41.04C27.4027 44.112 23.8613 46.6293 19.68 48.592C15.4987 50.5547 11.168 51.536 6.688 51.536C5.83467 51.536 5.00267 51.4933 4.192 51.408C3.38133 51.3653 2.80533 51.3227 2.464 51.28L1.888 51.152C1.20533 50.9813 0.864 50.64 0.864 50.128L1.056 49.488C1.48267 48.464 2.10133 47.056 2.912 45.264C3.68 43.472 5.49333 39.952 8.352 34.704C11.2533 29.456 14.3467 24.3787 17.632 19.472C20.704 14.864 23.136 11.664 24.928 9.872C25.5253 9.232 26.016 8.912 26.4 8.912C26.6987 8.912 26.848 9.168 26.848 9.68C26.848 10.0213 26.8267 10.2347 26.784 10.32C26.4 11.984 25.0347 15.12 22.688 19.728C14.9227 33.4667 10.0587 43.024 8.096 48.4C8.05333 48.528 8.032 48.6773 8.032 48.848C8.032 49.2747 8.20267 49.5093 8.544 49.552C8.8 49.5947 9.184 49.616 9.696 49.616C13.4507 49.616 17.312 47.8027 21.28 44.176C25.2907 40.5493 28.5973 36.0267 31.2 30.608C33.8027 25.1467 35.104 19.9627 35.104 15.056C35.104 11.472 34.08 8.48533 32.032 6.096C29.984 3.664 27.2107 2.448 23.712 2.448C21.92 2.448 20.4267 2.93866 19.232 3.92C18.08 4.90133 17.504 6.33066 17.504 8.208C17.504 9.70133 17.952 11.2373 18.848 12.816C18.9333 13.072 18.976 13.328 18.976 13.584C18.976 13.9253 18.848 14.096 18.592 14.096C18.464 14.096 18.272 14.032 18.016 13.904C17.0347 13.392 15.9467 12.3253 14.752 10.704C13.5573 9.08267 12.96 7.39733 12.96 5.648C12.96 4.28267 13.472 3.19467 14.496 2.384C15.52 1.57333 16.6293 1.06133 17.824 0.848C19.0187 0.591998 20.3413 0.463997 21.792 0.463997Z" fill="currentColor" />
    </symbol>
    <!--  -->
    <!--  -->
    <!--  -->
  </defs>
</svg>